<?xml version="1.0" encoding="UTF-8"?>
<svg xmlns="http://www.w3.org/2000/svg" width="1220mm" height="2440mm" viewBox="0 0 1220 2440">
  <!-- CNC Bookshelf: 1 sheet, t=18.0mm, bit=6.35mm, clearance=0.3mm/side -->
  <g fill="none" stroke="#000" stroke-width="0.2">
    <!-- Sheet outline (reference only) -->
    <rect x="0" y="0" width="1220" height="2440" stroke="#888" stroke-dasharray="6 6"/>

    <!-- LEFT SIDE PANEL -->
    <rect x="0.0" y="0" width="300.0" height="1200.0"/>
    <!-- Mortises (with 1/4” dogbones) for shelf tabs at 4 heights -->
    <!-- Height 1 -->
    <rect x="20.000" y="140.700" width="50.000" height="18.600"/>
    <circle cx="23.175" cy="143.875" r="3.175"/>
    <circle cx="66.825" cy="143.875" r="3.175"/>
    <circle cx="23.175" cy="156.125" r="3.175"/>
    <circle cx="66.825" cy="156.125" r="3.175"/>
    <rect x="125.000" y="140.700" width="50.000" height="18.600"/>
    <circle cx="128.175" cy="143.875" r="3.175"/>
    <circle cx="171.825" cy="143.875" r="3.175"/>
    <circle cx="128.175" cy="156.125" r="3.175"/>
    <circle cx="171.825" cy="156.125" r="3.175"/>
    <rect x="230.000" y="140.700" width="50.000" height="18.600"/>
    <circle cx="233.175" cy="143.875" r="3.175"/>
    <circle cx="276.825" cy="143.875" r="3.175"/>
    <circle cx="233.175" cy="156.125" r="3.175"/>
    <circle cx="276.825" cy="156.125" r="3.175"/>

    <!-- Height 2 -->
    <rect x="20.000" y="440.700" width="50.000" height="18.600"/>
    <circle cx="23.175" cy="443.875" r="3.175"/>
    <circle cx="66.825" cy="443.875" r="3.175"/>
    <circle cx="23.175" cy="456.125" r="3.175"/>
    <circle cx="66.825" cy="456.125" r="3.175"/>
    <rect x="125.000" y="440.700" width="50.000" height="18.600"/>
    <circle cx="128.175" cy="443.875" r="3.175"/>
    <circle cx="171.825" cy="443.875" r="3.175"/>
    <circle cx="128.175" cy="456.125" r="3.175"/>
    <circle cx="171.825" cy="456.125" r="3.175"/>
    <rect x="230.000" y="440.700" width="50.000" height="18.600"/>
    <circle cx="233.175" cy="443.875" r="3.175"/>
    <circle cx="276.825" cy="443.875" r="3.175"/>
    <circle cx="233.175" cy="456.125" r="3.175"/>
    <circle cx="276.825" cy="456.125" r="3.175"/>

    <!-- Height 3 -->
    <rect x="20.000" y="740.700" width="50.000" height="18.600"/>
    <circle cx="23.175" cy="743.875" r="3.175"/>
    <circle cx="66.825" cy="743.875" r="3.175"/>
    <circle cx="23.175" cy="756.125" r="3.175"/>
    <circle cx="66.825" cy="756.125" r="3.175"/>
    <rect x="125.000" y="740.700" width="50.000" height="18.600"/>
    <circle cx="128.175" cy="743.875" r="3.175"/>
    <circle cx="171.825" cy="743.875" r="3.175"/>
    <circle cx="128.175" cy="756.125" r="3.175"/>
    <circle cx="171.825" cy="756.125" r="3.175"/>
    <rect x="230.000" y="740.700" width="50.000" height="18.600"/>
    <circle cx="233.175" cy="743.875" r="3.175"/>
    <circle cx="276.825" cy="743.875" r="3.175"/>
    <circle cx="233.175" cy="756.125" r="3.175"/>
    <circle cx="276.825" cy="756.125" r="3.175"/>

    <!-- Height 4 -->
    <rect x="20.000" y="1040.700" width="50.000" height="18.600"/>
    <circle cx="23.175" cy="1043.875" r="3.175"/>
    <circle cx="66.825" cy="1043.875" r="3.175"/>
    <circle cx="23.175" cy="1056.125" r="3.175"/>
    <circle cx="66.825" cy="1056.125" r="3.175"/>
    <rect x="125.000" y="1040.700" width="50.000" height="18.600"/>
    <circle cx="128.175" cy="1043.875" r="3.175"/>
    <circle cx="171.825" cy="1043.875" r="3.175"/>
    <circle cx="128.175" cy="1056.125" r="3.175"/>
    <circle cx="171.825" cy="1056.125" r="3.175"/>
    <rect x="230.000" y="1040.700" width="50.000" height="18.600"/>
    <circle cx="233.175" cy="1043.875" r="3.175"/>
    <circle cx="276.825" cy="1043.875" r="3.175"/>
    <circle cx="233.175" cy="1056.125" r="3.175"/>
    <circle cx="276.825" cy="1056.125" r="3.175"/>

    <!-- RIGHT SIDE PANEL -->
    <rect x="300.0" y="0" width="300.0" height="1200.0"/>
    <!-- (Same mortises mirrored) -->
    <rect x="320.000" y="140.700" width="50.000" height="18.600"/>
    <circle cx="323.175" cy="143.875" r="3.175"/>
    <circle cx="366.825" cy="143.875" r="3.175"/>
    <circle cx="323.175" cy="156.125" r="3.175"/>
    <circle cx="366.825" cy="156.125" r="3.175"/>
    <rect x="425.000" y="140.700" width="50.000" height="18.600"/>
    <circle cx="428.175" cy="143.875" r="3.175"/>
    <circle cx="471.825" cy="143.875" r="3.175"/>
    <circle cx="428.175" cy="156.125" r="3.175"/>
    <circle cx="471.825" cy="156.125" r="3.175"/>
    <rect x="530.000" y="140.700" width="50.000" height="18.600"/>
    <circle cx="533.175" cy="143.875" r="3.175"/>
    <circle cx="576.825" cy="143.875" r="3.175"/>
    <circle cx="533.175" cy="156.125" r="3.175"/>
    <circle cx="576.825" cy="156.125" r="3.175"/>

    <rect x="320.000" y="440.700" width="50.000" height="18.600"/>
    <circle cx="323.175" cy="443.875" r="3.175"/>
    <circle cx="366.825" cy="443.875" r="3.175"/>
    <circle cx="323.175" cy="456.125" r="3.175"/>
    <circle cx="366.825" cy="456.125" r="3.175"/>
    <rect x="425.000" y="440.700" width="50.000" height="18.600"/>
    <circle cx="428.175" cy="443.875" r="3.175"/>
    <circle cx="471.825" cy="443.875" r="3.175"/>
    <circle cx="428.175" cy="456.125" r="3.175"/>
    <circle cx="471.825" cy="456.125" r="3.175"/>
    <rect x="530.000" y="440.700" width="50.000" height="18.600"/>
    <circle cx="533.175" cy="443.875" r="3.175"/>
    <circle cx="576.825" cy="443.875" r="3.175"/>
    <circle cx="533.175" cy="456.125" r="3.175"/>
    <circle cx="576.825" cy="456.125" r="3.175"/>

    <rect x="320.000" y="740.700" width="50.000" height="18.600"/>
    <circle cx="323.175" cy="743.875" r="3.175"/>
    <circle cx="366.825" cy="743.875" r="3.175"/>
    <circle cx="323.175" cy="756.125" r="3.175"/>
    <circle cx="366.825" cy="756.125" r="3.175"/>
    <rect x="425.000" y="740.700" width="50.000" height="18.600"/>
    <circle cx="428.175" cy="743.875" r="3.175"/>
    <circle cx="471.825" cy="743.875" r="3.175"/>
    <circle cx="428.175" cy="756.125" r="3.175"/>
    <circle cx="471.825" cy="756.125" r="3.175"/>
    <rect x="530.000" y="740.700" width="50.000" height="18.600"/>
    <circle cx="533.175" cy="743.875" r="3.175"/>
    <circle cx="576.825" cy="743.875" r="3.175"/>
    <circle cx="533.175" cy="756.125" r="3.175"/>
    <circle cx="576.825" cy="756.125" r="3.175"/>

    <rect x="320.000" y="1040.700" width="50.000" height="18.600"/>
    <circle cx="323.175" cy="1043.875" r="3.175"/>
    <circle cx="366.825" cy="1043.875" r="3.175"/>
    <circle cx="323.175" cy="1056.125" r="3.175"/>
    <circle cx="366.825" cy="1056.125" r="3.175"/>
    <rect x="425.000" y="1040.700" width="50.000" height="18.600"/>
    <circle cx="428.175" cy="1043.875" r="3.175"/>
    <circle cx="471.825" cy="1043.875" r="3.175"/>
    <circle cx="428.175" cy="1056.125" r="3.175"/>
    <circle cx="471.825" cy="1056.125" r="3.175"/>
    <rect x="530.000" y="1040.700" width="50.000" height="18.600"/>
    <circle cx="533.175" cy="1043.875" r="3.175"/>
    <circle cx="576.825" cy="1043.875" r="3.175"/>
    <circle cx="533.175" cy="1056.125" r="3.175"/>
    <circle cx="576.825" cy="1056.125" r="3.175"/>

    <!-- SHELVES with 3 tabs each side (4x) -->
    <!-- Shelf 1 -->
    <polyline points="620.000,0.000 1182.000,0.000 1182.000,300.000 1164.000,300.000 1164.000,270.000 1182.000,270.000 1182.000,220.000 1164.000,220.000 1164.000,170.000 1182.000,170.000 1182.000,50.000 1164.000,50.000 1164.000,0.000 618.000,0.000 618.000,50.000 600.000,50.000 600.000,100.000 618.000,100.000 618.000,150.000 600.000,150.000 600.000,200.000 618.000,200.000 618.000,250.000 600.000,250.000 600.000,300.000 620.000,300.000"/>
    <!-- Shelf 2 -->
    <polyline points="620.000,310.000 1182.000,310.000 1182.000,610.000 1164.000,610.000 1164.000,580.000 1182.000,580.000 1182.000,530.000 1164.000,530.000 1164.000,480.000 1182.000,480.000 1182.000,360.000 1164.000,360.000 1164.000,310.000 618.000,310.000 618.000,360.000 600.000,360.000 600.000,410.000 618.000,410.000 618.000,460.000 600.000,460.000 600.000,510.000 618.000,510.000 618.000,560.000 600.000,560.000 600.000,610.000 620.000,610.000"/>
    <!-- Shelf 3 -->
    <polyline points="620.000,620.000 1182.000,620.000 1182.000,920.000 1164.000,920.000 1164.000,890.000 1182.000,890.000 1182.000,840.000 1164.000,840.000 1164.000,790.000 1182.000,790.000 1182.000,670.000 1164.000,670.000 1164.000,620.000 618.000,620.000 618.000,670.000 600.000,670.000 600.000,720.000 618.000,720.000 618.000,770.000 600.000,770.000 600.000,820.000 618.000,820.000 618.000,870.000 600.000,870.000 600.000,920.000 620.000,920.000"/>
    <!-- Shelf 4 -->
    <polyline points="620.000,930.000 1182.000,930.000 1182.000,1230.000 1164.000,1230.000 1164.000,1200.000 1182.000,1200.000 1182.000,1150.000 1164.000,1150.000 1164.000,1100.000 1182.000,1100.000 1182.000,980.000 1164.000,980.000 1164.000,930.000 618.000,930.000 618.000,980.000 600.000,980.000 600.000,1030.000 618.000,1030.000 618.000,1080.000 600.000,1080.000 600.000,1130.000 618.000,1130.000 618.000,1180.000 600.000,1180.000 600.000,1230.000 620.000,1230.000"/>

    <!-- Back stretcher (optional) -->
    <rect x="620.000" y="1250.000" width="564.000" height="80.000"/>
    <rect x="812.000" y="1310.700" width="30.000" height="18.600"/>
    <circle cx="815.175" cy="1313.875" r="3.175"/>
    <circle cx="839.825" cy="1313.875" r="3.175"/>
    <circle cx="815.175" cy="1326.125" r="3.175"/>
    <circle cx="839.825" cy="1326.125" r="3.175"/>

    <rect x="902.000" y="1310.700" width="30.000" height="18.600"/>
    <circle cx="905.175" cy="1313.875" r="3.175"/>
    <circle cx="929.825" cy="1313.875" r="3.175"/>
    <circle cx="905.175" cy="1326.125" r="3.175"/>
    <circle cx="929.825" cy="1326.125" r="3.175"/>

    <rect x="992.000" y="1310.700" width="30.000" height="18.600"/>
    <circle cx="995.175" cy="1313.875" r="3.175"/>
    <circle cx="1019.825" cy="1313.875" r="3.175"/>
    <circle cx="995.175" cy="1326.125" r="3.175"/>
    <circle cx="1019.825" cy="1326.125" r="3.175"/>
  </g>
</svg>